{"title":"Playin' For Love","uid":12349657,"size":1114383395,"categoryP":"video","categoryS":"movies","magnet":"?xt=urn:btih:2a1bba8e9361559fefad76eb9a440c7c8b9b7923&amp;dn=Playin%27+For+Love&amp;tr=udp%3A%2F%2Ftracker.openbittorrent.com%3A80&amp;tr=udp%3A%2F%2Fopen.demonii.com%3A1337&amp;tr=udp%3A%2F%2Ftracker.coppersurfer.tk%3A6969&amp;tr=udp%3A%2F%2Fexodus.desync.com%3A6969","seeders":1,"leechers":2,"uploader":null,"files":7,"time":1441403145,"description":"General\n Complete name : Playin For Loveplayin for love.mp4\n Format : MPEG-4\n Format profile : Base Media / Version 2\n Codec ID : mp42\n File size : 1.03 GiB\n Duration : 1h 25mn\n Overall bit rate mode : Variable\n Overall bit rate : 1 733 Kbps\n Encoded date : UTC 2015-08-14 00:30:27\n Tagged date : UTC 2015-08-14 02:48:21\n\n Video\n ID : 1\n Format : AVC\n Format/Info : Advanced Video Codec\n Codec ID : avc1\n Codec ID/Info : Advanced Video Coding\n Duration : 1h 25mn\n Bit rate : 1 500 Kbps\n Width : 720 pixels\n Height : 480 pixels\n Display aspect ratio : 3:2\n Frame rate mode : Variable\n Frame rate : 59.940 fps\n Minimum frame rate : 19.987 fps\n Maximum frame rate : 59.960 fps\n Bits/(Pixel*Frame) : 0.072\n Stream size : 912 MiB (87%)\n Encoded date : UTC 2015-08-14 00:30:27\n Tagged date : UTC 2015-08-14 02:48:20\n\n Audio\n ID : 2\n Format : AAC\n Format/Info : Advanced Audio Codec\n Format profile : LC\n Codec ID : 40\n Duration : 1h 25mn\n Duration_FirstFrame : 87ms\n Bit rate mode : Variable\n Bit rate : 221 Kbps\n Channel(s) : 2 channels\n Channel positions : Front: L R\n Sampling rate : 48.0 KHz\n Compression mode : Lossy\n Stream size : 135 MiB (13%)\n Title : Stereo\n Encoded date : UTC 2015-08-14 00:30:29\n Tagged date : UTC 2015-08-14 02:48:20","torrent":{"xt":"urn:btih:2a1bba8e9361559fefad76eb9a440c7c8b9b7923","amp;dn":"Playin%27+For+Love","amp;tr":["udp%3A%2F%2Ftracker.openbittorrent.com%3A80","udp%3A%2F%2Fopen.demonii.com%3A1337","udp%3A%2F%2Ftracker.coppersurfer.tk%3A6969","udp%3A%2F%2Fexodus.desync.com%3A6969"],"infoHash":"2a1bba8e9361559fefad76eb9a440c7c8b9b7923","infoHashBuffer":{"type":"Buffer","data":[42,27,186,142,147,97,85,159,239,173,118,235,154,68,12,124,139,155,121,35]},"announce":[],"urlList":[]}}